<?xml version="1.0" encoding="utf-8"?>
<!-- Generator: Adobe Illustrator 23.0.0, SVG Export Plug-In . SVG Version: 6.00 Build 0)  -->
<svg version="1.1" xmlns="http://www.w3.org/2000/svg" xmlns:xlink="http://www.w3.org/1999/xlink" x="0px" y="0px"
	 viewBox="0 0 346.3 632.74" style="enable-background:new 0 0 346.3 632.74;" xml:space="preserve">
<style type="text/css">
	.st0{fill:#FFFFFF;}
	.st1{fill:#DDBDDC;}
</style>
<g id="Capa_1">
</g>
<g id="Capa_2">
	<path class="st0" d="M272.54,195.65c0,0-2.74,7.04-14.87,0c0,0-6.26-7.43-8.41-12.91c0,0-2.35,1.17-9-14.09
		c0,0-15.26-14.48-11.74-56.93c0,0,0.98-6.46-2.35-9.59c0,0-61.24-71.22-99.98-19.37c0,0-36.2,57.72-11.35,116.02
		S240,317.35,240,317.35s84.95,48.13,92.69,152.61c0,0,6.96,130.26-133.52,150.04S29.78,498.91,29.78,498.91
		s-18.43-85.3,77.04-137.35s138.13,84.52,138.13,84.52s-0.39,6.65-7.43,1.57c0,0-61.96-80.74-116.61-44.22c0,0-52.83,36-37.17,92.74
		c0,0,30.13,86.09,110.35,77.09c0,0,92.74-11.74,89.22-101.35c0,0-9.78-89-114.65-148S54.26,167.61,54.26,167.61
		s-10.7-67.3,35.48-109.57s90.81-28.7,90.81-28.7s64.41,4.3,96.88,91.96c0,0,12.91,21.13,2.74,27.39c0,0-3.13,1.17-6.65-4.3
		c0,0-2.35,7.43,4.7,10.96c0,0,3.13-0.78,1.96,10.17c0,0-2.74,12.91-1.57,18C278.61,183.52,277.43,190.96,272.54,195.65z"/>
	<path class="st1" d="M124.21,180.48l-5.98,1.85c0,0-19.32-3.3-48.48-53.56c4.25,57.96-9.84,71.57-9.84,71.57l-5.98,1.85
		c-9.48,3.55-35.5-14.66-35.5-14.66l31.24,44.16l46.62-16.96l47.83-12.6l1.14-53.76C145.26,148.36,134.04,178.06,124.21,180.48z"/>
</g>
</svg>
